<?xml version="1.0" encoding="UTF-8" standalone="no"?>
<!DOCTYPE svg PUBLIC "-//W3C//DTD SVG 20010904//EN" "http://www.w3.org/TR/2001/REC-SVG-20010904/DTD/svg10.dtd">
<svg version="1.0" xmlns="http://www.w3.org/2000/svg" width="260.000000pt" height="260.000000pt" viewBox="0 0 260.000000 260.000000" preserveAspectRatio="xMidYMid meet">
<metadata>
Created by potrace 1.11, written by Peter Selinger 2001-2013
</metadata>
<g transform="translate(0.000000,260.000000) scale(0.100000,-0.100000)" fill="#000000" stroke="none">
<path d="M1272 2538 c-8 -8 -12 -47 -12 -120 0 -93 2 -109 18 -117 10 -5 27 -8 38 -7 18 3 19 12 19 127 l0 124 -25 3 c-14 2 -31 -3 -38 -10z"/>
<path d="M977 2463 c-14 -4 -17 -10 -12 -26 3 -12 16 -60 29 -106 12 -47 28 -87 35 -89 16 -5 58 16 65 34 6 15 -79 195 -91 193 -4 -1 -16 -3 -26 -6z"/>
<path d="M1585 2457 c-11 -32 -35 -136 -39 -170 -3 -29 0 -39 13 -47 16 -8 24 4 66 91 42 91 45 103 32 116 -19 19 -67 25 -72 10z"/>
<path d="M690 2316 c0 -14 18 -42 46 -72 25 -27 57 -64 71 -81 30 -39 43 -35 43 15 0 26 -13 56 -40 100 -39 59 -42 62 -80 62 -35 0 -40 -3 -40 -24z"/>
<path d="M1812 2277 c-63 -63 -77 -98 -50 -125 16 -16 28 -15 28 1 0 7 27 41 60 76 39 41 60 72 60 87 0 41 -32 28 -98 -39z"/>
<path d="M2081 2142 c-6 -11 -46 -38 -91 -61 -87 -46 -100 -69 -60 -106 19 -17 20 -17 20 1 0 14 24 32 85 64 81 42 85 46 81 74 -6 40 -22 53 -35 28z"/>
<path d="M490 2130 c-12 -23 -11 -24 86 -85 42 -27 74 -54 77 -67 9 -33 39 -3 35 34 -3 26 -14 35 -83 72 -44 24 -79 48 -77 54 4 20 -27 13 -38 -8z"/>
<path d="M1050 1993 c-49 -7 -139 -45 -145 -61 -4 -10 -20 -62 -35 -117 -29 -101 -190 -575 -229 -673 -32 -80 -71 -154 -94 -179 -11 -13 -18 -25 -16 -27 2 -3 29 4 59 15 29 10 74 21 99 23 26 2 66 9 91 15 25 6 86 15 135 20 103 9 769 7 830 -3 22 -4 65 -12 95 -17 30 -6 71 -12 91 -15 19 -2 55 -10 78 -19 24 -8 48 -15 52 -15 5 0 -2 22 -16 50 -44 86 -89 203 -160 415 -68 200 -134 411 -140 448 -3 15 -12 45 -21 67 -16 39 -24 44 -109 66 -30 7 -519 13 -565 7z"/>
<path d="M364 1896 c-3 -8 -4 -27 -2 -42 3 -27 9 -30 86 -50 96 -25 117 -25 118 3 1 16 -17 30 -78 62 -84 43 -115 50 -124 27z"/>
<path d="M2158 1870 c-42 -22 -86 -41 -99 -43 -26 -4 -34 -33 -12 -41 21 -9 222 46 228 62 5 13 -23 61 -36 62 -3 0 -40 -18 -81 -40z"/>
<path d="M293 1653 c-20 -7 -15 -38 10 -61 20 -19 35 -22 108 -22 46 0 89 4 95 8 19 13 23 39 9 59 -12 18 -26 20 -112 20 -54 0 -104 -2 -110 -4z"/>
<path d="M2107 1646 c-33 -28 -38 -43 -22 -60 13 -13 39 -16 126 -16 l110 0 -3 43 -3 42 -97 1 c-60 1 -103 -3 -111 -10z"/>
<path d="M1020 930 c-5 -3 -8 -12 -6 -20 4 -25 44 -97 68 -123 l23 -24 220 1 219 1 1 35 c1 24 11 45 33 70 31 33 35 41 30 57 -3 8 -575 11 -588 3z"/>
<path d="M690 875 c-14 -8 -30 -14 -37 -15 -21 0 -125 -42 -119 -47 3 -3 36 -8 73 -10 37 -2 93 -10 124 -18 71 -19 74 -19 58 1 -13 16 -28 41 -50 82 -14 26 -16 26 -49 7z"/>
<path d="M839 858 c17 -18 36 -47 43 -65 7 -18 20 -35 29 -38 15 -5 51 -65 63 -107 4 -12 12 -16 33 -12 40 7 46 18 23 39 -11 10 -20 29 -20 42 0 32 -14 58 -67 121 -42 49 -47 52 -90 52 l-45 0 31 -32z"/>
<path d="M1682 863 c-27 -39 -58 -105 -58 -123 1 -23 45 -25 53 -3 9 25 56 92 88 126 l26 27 -45 0 c-37 0 -48 -4 -64 -27z"/>
<path d="M1870 881 c0 -6 -10 -32 -21 -56 -12 -25 -19 -48 -16 -51 3 -3 29 2 58 10 30 8 81 17 114 20 33 2 62 5 65 5 16 3 -49 34 -106 52 -36 11 -73 23 -80 26 -8 3 -14 0 -14 -6z"/>
<path d="M1475 619 c-55 -10 -120 -20 -145 -24 -25 -3 -54 -8 -65 -10 -23 -5 -35 -7 -157 -25 -49 -7 -89 -17 -89 -22 -9 -57 1 -78 34 -72 12 2 38 6 57 8 44 6 107 16 140 22 33 6 263 43 318 51 23 3 45 10 48 15 12 19 13 56 1 65 -15 13 -22 13 -142 -8z"/>
<path d="M1545 460 c-27 -5 -70 -11 -95 -14 -25 -4 -52 -8 -60 -11 -8 -2 -33 -6 -55 -10 -22 -3 -66 -10 -97 -15 -96 -17 -104 -18 -162 -25 -31 -4 -56 -11 -56 -15 0 -5 -3 -15 -6 -23 -3 -9 3 -24 14 -35 17 -17 27 -19 64 -12 23 5 149 26 278 46 129 20 238 40 243 44 21 19 12 83 -12 79 -3 -1 -28 -5 -56 -9z"/>
<path d="M1495 325 c-44 -8 -96 -16 -115 -19 -19 -3 -60 -10 -90 -15 -30 -6 -73 -13 -95 -16 -146 -21 -166 -27 -176 -53 -20 -53 9 -63 122 -42 30 5 68 12 84 14 17 2 57 9 90 15 33 6 80 13 104 16 24 3 47 7 50 9 3 3 35 7 71 11 36 4 70 11 76 16 16 13 11 59 -7 70 -17 10 -13 11 -114 -6z"/>
<path d="M1416 163 c-1 -1 -22 -5 -47 -8 -201 -23 -224 -28 -251 -53 -23 -21 -25 -27 -15 -44 10 -16 20 -18 72 -13 33 3 69 7 80 9 11 2 49 8 85 12 36 4 68 9 73 10 4 1 23 2 42 3 40 1 56 23 48 64 -5 25 -9 27 -45 25 -21 -1 -40 -3 -42 -5z"/>
</g>
</svg>